<svg xmlns="http://www.w3.org/2000/svg" viewBox="0 0 24 24" fill="#111">
  <path d="M12 .5C5.73.5.75 5.48.75 11.76c0 5 3.29 9.23 7.86 10.72.58.11.79-.25.79-.56 0-.28-.01-1.02-.02-2-3.2.7-3.88-1.38-3.88-1.38-.52-1.32-1.27-1.67-1.27-1.67-1.04-.71.08-.7.08-.7 1.15.08 1.75 1.18 1.75 1.18 1.02 1.76 2.66 1.25 3.31.96.1-.75.4-1.25.73-1.54-2.56-.29-5.26-1.28-5.26-5.69 0-1.26.45-2.3 1.18-3.11-.12-.29-.51-1.46.11-3.05 0 0 .96-.31 3.14 1.18a10.9 10.9 0 0 1 5.72 0c2.18-1.5 3.14-1.18 3.14-1.18.63 1.59.24 2.76.12 3.05.74.81 1.18 1.85 1.18 3.11 0 4.42-2.71 5.39-5.29 5.67.41.36.78 1.07.78 2.16 0 1.56-.01 2.82-.01 3.2 0 .31.21.67.8.56A11.27 11.27 0 0 0 23.25 11.76C23.25 5.48 18.27.5 12 .5z"/>
</svg>